# xmcd
#
# Track frame offsets: 
#        150
#        17410
#        35985
#        55741
#        74634
#        94188
#        114598
#        131201
#        149053
#        165154
#
# Disc length: 2591 seconds
#
# Revision: 11
# Processed by: cddbd v1.5.2PL0 Copyright (c) Steve Scherf et al.
# Submitted via: ExactAudioCopy v1.0b1
#
DISCID=920a1d0a
DTITLE=Various Artist - xXx  Cd02
DYEAR=2002
DGENRE=Soundtrack
TTITLE0=Nelly (Feat. Toya) - Stick Out Ya Wrist
TTITLE1=Lil' Wayne - Look At Me
TTITLE2=N.E.R.D. (Feat. Kelis and Pusha T) - Truth Or Dare
TTITLE3=Pastor Troy (Feat. Ms Jade) - Are We Cuttin'
TTITLE4=Big Tymers - Still Fly
TTITLE5=Mack 10 (Feat. Ice Cube, W.C. and Butch Cassidy) - Connected For
TTITLE5=Life
TTITLE6=Mr. Cheeks (Feat. Missy Elliott and P. Diddy) - Lights Camera Ac
TTITLE6=tion! (Club Mix)
TTITLE7=Postaboy (Feat. Rashad) - It's Okay
TTITLE8=Dani Stevenson - Yo, Yo, Yo
TTITLE9=Joi - Lick
EXTD=YEAR: 2002The Xander Xone
EXTT0=
EXTT1=
EXTT2=
EXTT3=
EXTT4=
EXTT5=
EXTT6=
EXTT7=
EXTT8=
EXTT9=
PLAYORDER=
